<svg width="1168" height="298" viewBox="0 0 1168 298" fill="none" xmlns="http://www.w3.org/2000/svg">
<path d="M277.59 137V81.58L236.45 15.45H266.88L284.9 48.77C286.6 52 288.47 56.93 290.51 63.9C292.04 58.46 293.91 53.53 296.46 48.6L314.31 15.45H344.57L303.6 81.58V137H277.59ZM409.057 117.11C431.667 117.11 447.137 99.09 447.137 76.48C447.137 54.04 431.327 35.68 409.057 35.68C386.447 35.68 370.807 54.04 370.807 76.48C370.807 99.09 385.767 117.11 409.057 117.11ZM473.827 76.48C473.827 93.82 467.197 109.8 454.957 121.53C442.377 133.6 426.057 140.23 409.057 140.23C394.097 140.23 379.477 134.96 367.747 125.61C352.447 113.37 344.117 95.86 344.117 76.48C344.117 59.14 350.577 43.5 362.987 31.43C375.227 19.53 392.057 12.73 409.057 12.73C426.057 12.73 442.717 19.53 454.957 31.43C467.367 43.5 473.827 59.31 473.827 76.48ZM600.363 15.45V91.1C600.363 123.91 583.193 140.23 548.003 140.23C512.473 140.23 495.303 124.08 495.303 91.1V15.45H521.143V87.02C521.143 107.25 530.153 117.28 547.663 117.28C565.343 117.28 574.523 106.91 574.523 87.02V15.45H600.363ZM653.307 67.3H657.217C673.367 67.3 683.057 65.94 683.057 51.83C683.057 37.72 673.707 35.34 657.217 35.34H653.307V67.3ZM715.187 137H685.267L653.307 80.22V137H627.297V15.45H664.527C694.107 15.45 708.727 27.01 708.727 49.96C708.727 66.79 697.507 79.71 681.697 81.75L715.187 137ZM252.6 288V166.45H279.63L333.35 237.17C336.41 241.08 340.15 248.22 344.23 258.42C342.53 248.05 342.53 240.23 342.53 234.45V166.45H367.35V288H341.85L286.6 215.92C283.54 212.01 279.8 204.7 275.72 194.5C277.42 204.7 277.42 212.69 277.42 218.64V288H252.6ZM394.377 288V166.45H465.947V188.38H420.387V213.37H465.947V235.47H420.387V265.9H465.947V288H394.377ZM492.006 288V166.45H518.016V288H492.006ZM606.134 223.91H661.554C661.724 225.95 661.724 227.99 661.724 230.03C661.724 267.26 638.094 291.23 605.794 291.23C567.714 291.23 540.854 264.03 540.854 227.31C540.854 190.42 568.394 163.73 605.794 163.73C625.514 163.73 642.174 172.06 655.094 188.55L637.584 201.47C629.934 191.95 621.264 186.17 607.154 186.17C583.184 186.17 567.544 202.32 567.544 227.31C567.544 252.13 583.694 268.45 606.644 268.45C623.814 268.45 635.374 259.44 635.374 246.69V245.33H606.134V223.91ZM682.248 288V166.45H708.258V215.24H760.958V166.45H786.968V288H760.958V237.17H708.258V288H682.248ZM814.065 288V166.45H836.845C853.505 166.45 866.425 166.79 876.795 172.4C886.145 177.67 891.585 186.85 891.585 198.07C891.585 212.52 883.085 221.19 866.085 224.08C885.805 226.97 895.835 237 895.835 253.32C895.835 265.22 889.715 275.76 879.685 281.2C867.445 287.83 852.825 288 833.955 288H814.065ZM840.075 215.07H845.855C860.305 215.07 867.445 211.84 867.445 200.62C867.445 189.74 860.985 186.51 846.365 186.51H840.075V215.07ZM840.075 267.77H850.275C863.535 267.77 870.165 261.82 870.165 250.94C870.165 240.91 863.535 235.13 850.615 235.13H840.075V267.77ZM975.17 268.11C997.78 268.11 1013.25 250.09 1013.25 227.48C1013.25 205.04 997.44 186.68 975.17 186.68C952.56 186.68 936.92 205.04 936.92 227.48C936.92 250.09 951.88 268.11 975.17 268.11ZM1039.94 227.48C1039.94 244.82 1033.31 260.8 1021.07 272.53C1008.49 284.6 992.17 291.23 975.17 291.23C960.21 291.23 945.59 285.96 933.86 276.61C918.56 264.37 910.23 246.86 910.23 227.48C910.23 210.14 916.69 194.5 929.1 182.43C941.34 170.53 958.17 163.73 975.17 163.73C992.17 163.73 1008.83 170.53 1021.07 182.43C1033.48 194.5 1039.94 210.31 1039.94 227.48ZM1087.94 218.3H1091.85C1108 218.3 1117.69 216.94 1117.69 202.83C1117.69 188.72 1108.34 186.34 1091.85 186.34H1087.94V218.3ZM1149.82 288H1119.9L1087.94 231.22V288H1061.93V166.45H1099.16C1128.74 166.45 1143.36 178.01 1143.36 200.96C1143.36 217.79 1132.14 230.71 1116.33 232.75L1149.82 288Z" fill="white"/>
<path d="M135.667 67.25H200.743V297.307H0V9H135.667V67.25Z" fill="white"/>
<path d="M26.3048 188.349L100.371 267.299L174.439 188.349C183.159 179.053 188.059 166.445 188.059 153.299V151.075C188.059 124.927 168.172 103.729 143.642 103.729C130.148 103.729 117.386 110.267 108.957 121.498L100.371 132.938L91.7857 121.498C83.3565 110.267 70.5949 103.729 57.1016 103.729C32.5707 103.729 12.6843 124.927 12.6843 151.075V153.299C12.6843 166.445 17.5837 179.053 26.3048 188.349Z" fill="#D5445F"/>
</svg>
