<svg width="1168" height="298" viewBox="0 0 1168 298" fill="none" xmlns="http://www.w3.org/2000/svg">
<path d="M350.52 47.07C341.51 39.08 330.97 33.47 316.52 33.47C290.51 33.47 274.02 50.3 274.02 76.31C274.02 101.47 288.81 117.96 313.97 117.96C327.91 117.96 339.98 113.37 350.35 103.85L350.18 130.54C339.13 137 327.06 140.23 313.63 140.23C274.36 140.23 247.33 112.86 247.33 76.31C247.33 40.44 273.68 12.56 314.14 12.56C329.44 12.56 341.51 16.3 351.37 21.06L350.52 47.07ZM374.621 137V15.45H446.191V37.38H400.631V62.37H446.191V84.47H400.631V114.9H446.191V137H374.621ZM471.741 137V15.45H497.751V114.9H539.231V137H471.741ZM555.579 137V15.45H627.149V37.38H581.589V62.37H627.149V84.47H581.589V114.9H627.149V137H555.579ZM644.878 121.53L659.328 105.21C663.068 114.22 671.738 119.66 681.768 119.66C694.348 119.66 701.488 113.2 701.488 103.68C701.488 92.97 691.458 90.76 674.798 82.09C656.948 72.74 646.578 63.9 646.578 46.9C646.578 27.69 663.068 12.56 689.418 12.56C704.038 12.56 714.408 17.49 722.568 28.54L707.268 43.16C703.528 36.02 697.408 32.62 689.078 32.62C678.538 32.62 671.908 38.57 671.908 46.56C671.908 57.78 682.788 60.5 696.388 66.62C716.788 75.97 726.648 87.53 726.648 102.83C726.648 124.76 710.838 140.23 683.638 140.23C664.768 140.23 651.338 133.43 644.878 121.53ZM793.215 37.55V137H767.205V37.55H737.455V15.45H823.135V37.55H793.215ZM839.963 137V15.45H911.533V37.38H865.973V62.37H911.533V84.47H865.973V114.9H911.533V137H839.963ZM301.9 166.45V246.52C301.9 259.78 301.56 269.81 297.31 277.46C292.38 286.47 282.86 291.23 269.26 291.23C252.26 291.23 241.89 282.56 239 266.07L257.87 257.06C258.72 264.88 261.78 268.62 267.05 268.62C275.21 268.62 275.89 262.33 275.89 248.9V166.45H301.9ZM387.807 268.11C410.417 268.11 425.887 250.09 425.887 227.48C425.887 205.04 410.077 186.68 387.807 186.68C365.197 186.68 349.557 205.04 349.557 227.48C349.557 250.09 364.517 268.11 387.807 268.11ZM452.577 227.48C452.577 244.82 445.947 260.8 433.707 272.53C421.127 284.6 404.807 291.23 387.807 291.23C372.847 291.23 358.227 285.96 346.497 276.61C331.197 264.37 322.867 246.86 322.867 227.48C322.867 210.14 329.327 194.5 341.737 182.43C353.977 170.53 370.807 163.73 387.807 163.73C404.807 163.73 421.467 170.53 433.707 182.43C446.117 194.5 452.577 210.31 452.577 227.48ZM474.563 288V166.45H500.573V215.24H553.273V166.45H579.283V288H553.273V237.17H500.573V288H474.563ZM606.379 288V166.45H633.409L687.129 237.17C690.189 241.08 693.929 248.22 698.009 258.42C696.309 248.05 696.309 240.23 696.309 234.45V166.45H721.129V288H695.629L640.379 215.92C637.319 212.01 633.579 204.7 629.499 194.5C631.199 204.7 631.199 212.69 631.199 218.64V288H606.379ZM740.337 272.53L754.787 256.21C758.527 265.22 767.197 270.66 777.227 270.66C789.807 270.66 796.947 264.2 796.947 254.68C796.947 243.97 786.917 241.76 770.257 233.09C752.407 223.74 742.037 214.9 742.037 197.9C742.037 178.69 758.527 163.56 784.877 163.56C799.497 163.56 809.867 168.49 818.027 179.54L802.727 194.16C798.987 187.02 792.867 183.62 784.537 183.62C773.997 183.62 767.367 189.57 767.367 197.56C767.367 208.78 778.247 211.5 791.847 217.62C812.247 226.97 822.107 238.53 822.107 253.83C822.107 275.76 806.297 291.23 779.097 291.23C760.227 291.23 746.797 284.43 740.337 272.53ZM902.954 268.11C925.564 268.11 941.034 250.09 941.034 227.48C941.034 205.04 925.224 186.68 902.954 186.68C880.344 186.68 864.704 205.04 864.704 227.48C864.704 250.09 879.664 268.11 902.954 268.11ZM967.724 227.48C967.724 244.82 961.094 260.8 948.854 272.53C936.274 284.6 919.954 291.23 902.954 291.23C887.994 291.23 873.374 285.96 861.644 276.61C846.344 264.37 838.014 246.86 838.014 227.48C838.014 210.14 844.474 194.5 856.884 182.43C869.124 170.53 885.954 163.73 902.954 163.73C919.954 163.73 936.614 170.53 948.854 182.43C961.264 194.5 967.724 210.31 967.724 227.48ZM989.709 288V166.45H1016.74L1070.46 237.17C1073.52 241.08 1077.26 248.22 1081.34 258.42C1079.64 248.05 1079.64 240.23 1079.64 234.45V166.45H1104.46V288H1078.96L1023.71 215.92C1020.65 212.01 1016.91 204.7 1012.83 194.5C1014.53 204.7 1014.53 212.69 1014.53 218.64V288H989.709Z" fill="white"/>
<path d="M135.667 67.25H200.743V297.307H0V9H135.667V67.25Z" fill="white"/>
<path d="M26.3048 188.349L100.371 267.299L174.439 188.349C183.159 179.053 188.059 166.445 188.059 153.299V151.075C188.059 124.927 168.172 103.729 143.642 103.729C130.148 103.729 117.386 110.267 108.957 121.498L100.371 132.938L91.7857 121.498C83.3565 110.267 70.5949 103.729 57.1016 103.729C32.5707 103.729 12.6843 124.927 12.6843 151.075V153.299C12.6843 166.445 17.5837 179.053 26.3048 188.349Z" fill="#D5445F"/>
</svg>
