<svg width="1135" height="369" viewBox="0 0 1135 369" fill="none" xmlns="http://www.w3.org/2000/svg">
<path d="M363.68 43.005C355.465 35.72 345.855 30.605 332.68 30.605C308.965 30.605 293.93 45.95 293.93 69.665C293.93 92.605 307.415 107.64 330.355 107.64C343.065 107.64 354.07 103.455 363.525 94.775L363.37 119.11C353.295 125 342.29 127.945 330.045 127.945C294.24 127.945 269.595 102.99 269.595 69.665C269.595 36.96 293.62 11.54 330.51 11.54C344.46 11.54 355.465 14.95 364.455 19.29L363.68 43.005ZM385.655 125V14.175H450.91V34.17H409.37V56.955H450.91V77.105H409.37V104.85H450.91V125H385.655ZM474.205 125V14.175H497.92V104.85H535.74V125H474.205ZM550.645 125V14.175H615.9V34.17H574.36V56.955H615.9V77.105H574.36V104.85H615.9V125H550.645ZM632.065 110.895L645.24 96.015C648.65 104.23 656.555 109.19 665.7 109.19C677.17 109.19 683.68 103.3 683.68 94.62C683.68 84.855 674.535 82.84 659.345 74.935C643.07 66.41 633.615 58.35 633.615 42.85C633.615 25.335 648.65 11.54 672.675 11.54C686.005 11.54 695.46 16.035 702.9 26.11L688.95 39.44C685.54 32.93 679.96 29.83 672.365 29.83C662.755 29.83 656.71 35.255 656.71 42.54C656.71 52.77 666.63 55.25 679.03 60.83C697.63 69.355 706.62 79.895 706.62 93.845C706.62 113.84 692.205 127.945 667.405 127.945C650.2 127.945 637.955 121.745 632.065 110.895ZM767.313 34.325V125H743.598V34.325H716.473V14.175H794.593V34.325H767.313ZM809.937 125V14.175H875.192V34.17H833.652V56.955H875.192V77.105H833.652V104.85H875.192V125H809.937ZM319.35 152.175V225.18C319.35 237.27 319.04 246.415 315.165 253.39C310.67 261.605 301.99 265.945 289.59 265.945C274.09 265.945 264.635 258.04 262 243.005L279.205 234.79C279.98 241.92 282.77 245.33 287.575 245.33C295.015 245.33 295.635 239.595 295.635 227.35V152.175H319.35ZM397.677 244.865C418.292 244.865 432.397 228.435 432.397 207.82C432.397 187.36 417.982 170.62 397.677 170.62C377.062 170.62 362.802 187.36 362.802 207.82C362.802 228.435 376.442 244.865 397.677 244.865ZM456.732 207.82C456.732 223.63 450.687 238.2 439.527 248.895C428.057 259.9 413.177 265.945 397.677 265.945C384.037 265.945 370.707 261.14 360.012 252.615C346.062 241.455 338.467 225.49 338.467 207.82C338.467 192.01 344.357 177.75 355.672 166.745C366.832 155.895 382.177 149.695 397.677 149.695C413.177 149.695 428.367 155.895 439.527 166.745C450.842 177.75 456.732 192.165 456.732 207.82ZM476.778 263V152.175H500.493V196.66H548.543V152.175H572.258V263H548.543V216.655H500.493V263H476.778ZM596.963 263V152.175H621.608L670.588 216.655C673.378 220.22 676.788 226.73 680.508 236.03C678.958 226.575 678.958 219.445 678.958 214.175V152.175H701.588V263H678.338L627.963 197.28C625.173 193.715 621.763 187.05 618.043 177.75C619.593 187.05 619.593 194.335 619.593 199.76V263H596.963ZM719.101 248.895L732.276 234.015C735.686 242.23 743.591 247.19 752.736 247.19C764.206 247.19 770.716 241.3 770.716 232.62C770.716 222.855 761.571 220.84 746.381 212.935C730.106 204.41 720.651 196.35 720.651 180.85C720.651 163.335 735.686 149.54 759.711 149.54C773.041 149.54 782.496 154.035 789.936 164.11L775.986 177.44C772.576 170.93 766.996 167.83 759.401 167.83C749.791 167.83 743.746 173.255 743.746 180.54C743.746 190.77 753.666 193.25 766.066 198.83C784.666 207.355 793.656 217.895 793.656 231.845C793.656 251.84 779.241 265.945 754.441 265.945C737.236 265.945 724.991 259.745 719.101 248.895ZM867.369 244.865C887.984 244.865 902.089 228.435 902.089 207.82C902.089 187.36 887.674 170.62 867.369 170.62C846.754 170.62 832.494 187.36 832.494 207.82C832.494 228.435 846.134 244.865 867.369 244.865ZM926.424 207.82C926.424 223.63 920.379 238.2 909.219 248.895C897.749 259.9 882.869 265.945 867.369 265.945C853.729 265.945 840.399 261.14 829.704 252.615C815.754 241.455 808.159 225.49 808.159 207.82C808.159 192.01 814.049 177.75 825.364 166.745C836.524 155.895 851.869 149.695 867.369 149.695C882.869 149.695 898.059 155.895 909.219 166.745C920.534 177.75 926.424 192.165 926.424 207.82ZM946.47 263V152.175H971.115L1020.1 216.655C1022.89 220.22 1026.3 226.73 1030.02 236.03C1028.47 226.575 1028.47 219.445 1028.47 214.175V152.175H1051.1V263H1027.85L977.47 197.28C974.68 193.715 971.27 187.05 967.55 177.75C969.1 187.05 969.1 194.335 969.1 199.76V263H946.47Z" fill="white"/>
<path d="M275.537 322.248V319.7H290.58V322.248H275.537ZM275.537 336.703V334.155H290.09V336.703H275.537ZM274.116 319.7H276.811V354H274.116V319.7ZM293.971 342.73C293.971 340.443 294.477 338.418 295.49 336.654C296.502 334.89 297.874 333.502 299.606 332.489C301.37 331.476 303.346 330.97 305.535 330.97C307.723 330.97 309.683 331.476 311.415 332.489C313.179 333.502 314.567 334.89 315.58 336.654C316.592 338.418 317.099 340.443 317.099 342.73C317.099 344.984 316.592 347.009 315.58 348.806C314.567 350.57 313.179 351.958 311.415 352.971C309.683 353.984 307.723 354.49 305.535 354.49C303.346 354.49 301.37 353.984 299.606 352.971C297.874 351.958 296.502 350.57 295.49 348.806C294.477 347.009 293.971 344.984 293.971 342.73ZM296.568 342.73C296.568 344.559 296.96 346.176 297.744 347.581C298.528 348.986 299.589 350.096 300.929 350.913C302.301 351.697 303.836 352.089 305.535 352.089C307.233 352.089 308.752 351.697 310.092 350.913C311.464 350.096 312.542 348.986 313.326 347.581C314.11 346.176 314.502 344.559 314.502 342.73C314.502 340.933 314.11 339.333 313.326 337.928C312.542 336.491 311.464 335.38 310.092 334.596C308.752 333.779 307.233 333.371 305.535 333.371C303.836 333.371 302.301 333.779 300.929 334.596C299.589 335.38 298.528 336.474 297.744 337.879C296.96 339.284 296.568 340.901 296.568 342.73ZM325.419 331.46V354H322.871V331.46H325.419ZM332.916 334.449C332.426 334.09 331.952 333.828 331.495 333.665C331.07 333.469 330.564 333.371 329.976 333.371C328.865 333.371 327.967 333.681 327.281 334.302C326.628 334.923 326.154 335.756 325.86 336.801C325.566 337.846 325.419 339.006 325.419 340.28H324.243C324.243 338.483 324.521 336.899 325.076 335.527C325.631 334.122 326.383 333.012 327.33 332.195C328.31 331.378 329.388 330.97 330.564 330.97C331.283 330.97 331.952 331.084 332.573 331.313C333.226 331.509 333.814 331.852 334.337 332.342L332.916 334.449ZM355.018 336.605V334.057H378.146V336.605H355.018ZM376.333 319.7H379.077V354H376.333V319.7ZM353.597 319.7H356.292V354H353.597V319.7ZM385.128 342.73C385.128 340.443 385.634 338.418 386.647 336.654C387.659 334.89 389.031 333.502 390.763 332.489C392.527 331.476 394.503 330.97 396.692 330.97C398.88 330.97 400.84 331.476 402.572 332.489C404.336 333.502 405.724 334.89 406.737 336.654C407.749 338.418 408.256 340.443 408.256 342.73C408.256 344.984 407.749 347.009 406.737 348.806C405.724 350.57 404.336 351.958 402.572 352.971C400.84 353.984 398.88 354.49 396.692 354.49C394.503 354.49 392.527 353.984 390.763 352.971C389.031 351.958 387.659 350.57 386.647 348.806C385.634 347.009 385.128 344.984 385.128 342.73ZM387.725 342.73C387.725 344.559 388.117 346.176 388.901 347.581C389.685 348.986 390.746 350.096 392.086 350.913C393.458 351.697 394.993 352.089 396.692 352.089C398.39 352.089 399.909 351.697 401.249 350.913C402.621 350.096 403.699 348.986 404.483 347.581C405.267 346.176 405.659 344.559 405.659 342.73C405.659 340.933 405.267 339.333 404.483 337.928C403.699 336.491 402.621 335.38 401.249 334.596C399.909 333.779 398.39 333.371 396.692 333.371C394.993 333.371 393.458 333.779 392.086 334.596C390.746 335.38 389.685 336.474 388.901 337.879C388.117 339.284 387.725 340.901 387.725 342.73ZM416.576 345.768C416.576 347.728 417.001 349.28 417.85 350.423C418.7 351.534 420.039 352.089 421.868 352.089C423.142 352.089 424.269 351.779 425.249 351.158C426.262 350.537 427.046 349.704 427.601 348.659C428.189 347.614 428.483 346.454 428.483 345.18V331.46H431.031V354H428.483V349.296C427.863 350.929 426.932 352.203 425.69 353.118C424.449 354.033 422.979 354.49 421.28 354.49C418.928 354.49 417.132 353.739 415.89 352.236C414.649 350.701 414.028 348.643 414.028 346.062V331.46H416.576V345.768ZM438.718 347.581C439.045 348.398 439.486 349.149 440.041 349.835C440.597 350.521 441.299 351.076 442.148 351.501C443.03 351.926 444.059 352.138 445.235 352.138C446.607 352.138 447.702 351.795 448.518 351.109C449.368 350.39 449.792 349.41 449.792 348.169C449.792 347.254 449.531 346.503 449.008 345.915C448.486 345.294 447.8 344.788 446.95 344.396C446.101 343.971 445.186 343.596 444.206 343.269C443.161 342.877 442.148 342.436 441.168 341.946C440.188 341.456 439.372 340.803 438.718 339.986C438.098 339.137 437.787 338.042 437.787 336.703C437.787 335.429 438.098 334.367 438.718 333.518C439.372 332.669 440.205 332.048 441.217 331.656C442.263 331.231 443.373 331.019 444.549 331.019C445.823 331.019 446.967 331.231 447.979 331.656C448.992 332.081 449.858 332.636 450.576 333.322C451.295 334.008 451.85 334.776 452.242 335.625L450.135 336.899C449.613 335.919 448.878 335.07 447.93 334.351C446.983 333.632 445.758 333.273 444.255 333.273C443.145 333.273 442.197 333.551 441.413 334.106C440.662 334.661 440.286 335.478 440.286 336.556C440.286 337.438 440.531 338.173 441.021 338.761C441.511 339.316 442.165 339.774 442.981 340.133C443.798 340.492 444.664 340.835 445.578 341.162C446.787 341.619 447.898 342.126 448.91 342.681C449.956 343.236 450.789 343.922 451.409 344.739C452.063 345.556 452.389 346.601 452.389 347.875C452.389 349.835 451.703 351.436 450.331 352.677C448.992 353.886 447.244 354.49 445.088 354.49C443.52 354.49 442.148 354.212 440.972 353.657C439.829 353.102 438.898 352.383 438.179 351.501C437.493 350.619 436.987 349.704 436.66 348.757L438.718 347.581ZM467.007 354.49C464.982 354.49 463.185 353.984 461.617 352.971C460.049 351.958 458.808 350.57 457.893 348.806C457.011 347.009 456.57 344.968 456.57 342.681C456.57 340.394 457.028 338.369 457.942 336.605C458.857 334.841 460.131 333.469 461.764 332.489C463.398 331.476 465.276 330.97 467.399 330.97C469.457 330.97 471.254 331.444 472.789 332.391C474.357 333.338 475.566 334.661 476.415 336.36C477.297 338.026 477.738 339.953 477.738 342.142C477.738 342.338 477.722 342.55 477.689 342.779C477.689 343.008 477.673 343.204 477.64 343.367H458.187V341.162H475.729L474.651 342.681C474.717 342.518 474.782 342.305 474.847 342.044C474.945 341.75 474.994 341.472 474.994 341.211C474.994 339.676 474.651 338.304 473.965 337.095C473.312 335.886 472.414 334.939 471.27 334.253C470.127 333.567 468.837 333.224 467.399 333.224C465.733 333.224 464.28 333.616 463.038 334.4C461.83 335.151 460.882 336.229 460.196 337.634C459.51 339.006 459.167 340.639 459.167 342.534C459.167 344.461 459.494 346.144 460.147 347.581C460.833 349.018 461.781 350.129 462.989 350.913C464.231 351.697 465.668 352.089 467.301 352.089C469.033 352.089 470.535 351.713 471.809 350.962C473.116 350.211 474.276 349.035 475.288 347.434L477.346 348.757C476.072 350.717 474.586 352.171 472.887 353.118C471.221 354.033 469.261 354.49 467.007 354.49ZM498.444 319.7H501.139V354H498.444V319.7ZM507.754 354H499.914V351.305H507.754C509.877 351.305 511.805 350.962 513.536 350.276C515.3 349.59 516.803 348.626 518.044 347.385C519.285 346.111 520.233 344.592 520.886 342.828C521.572 341.031 521.915 339.039 521.915 336.85C521.915 334.661 521.572 332.685 520.886 330.921C520.233 329.124 519.285 327.605 518.044 326.364C516.803 325.09 515.3 324.11 513.536 323.424C511.805 322.738 509.877 322.395 507.754 322.395H499.914V319.7H507.754C511.086 319.7 514.01 320.419 516.525 321.856C519.073 323.293 521.049 325.302 522.454 327.883C523.891 330.431 524.61 333.42 524.61 336.85C524.61 340.28 523.891 343.285 522.454 345.866C521.049 348.414 519.073 350.407 516.525 351.844C514.01 353.281 511.086 354 507.754 354ZM530.642 321.268C530.642 320.745 530.822 320.321 531.181 319.994C531.541 319.635 531.965 319.455 532.455 319.455C532.978 319.455 533.403 319.635 533.729 319.994C534.089 320.321 534.268 320.745 534.268 321.268C534.268 321.758 534.089 322.183 533.729 322.542C533.403 322.901 532.978 323.081 532.455 323.081C531.965 323.081 531.541 322.901 531.181 322.542C530.822 322.183 530.642 321.758 530.642 321.268ZM531.181 331.46H533.729V354H531.181V331.46ZM541.982 347.581C542.309 348.398 542.75 349.149 543.305 349.835C543.86 350.521 544.563 351.076 545.412 351.501C546.294 351.926 547.323 352.138 548.499 352.138C549.871 352.138 550.965 351.795 551.782 351.109C552.631 350.39 553.056 349.41 553.056 348.169C553.056 347.254 552.795 346.503 552.272 345.915C551.749 345.294 551.063 344.788 550.214 344.396C549.365 343.971 548.45 343.596 547.47 343.269C546.425 342.877 545.412 342.436 544.432 341.946C543.452 341.456 542.635 340.803 541.982 339.986C541.361 339.137 541.051 338.042 541.051 336.703C541.051 335.429 541.361 334.367 541.982 333.518C542.635 332.669 543.468 332.048 544.481 331.656C545.526 331.231 546.637 331.019 547.813 331.019C549.087 331.019 550.23 331.231 551.243 331.656C552.256 332.081 553.121 332.636 553.84 333.322C554.559 334.008 555.114 334.776 555.506 335.625L553.399 336.899C552.876 335.919 552.141 335.07 551.194 334.351C550.247 333.632 549.022 333.273 547.519 333.273C546.408 333.273 545.461 333.551 544.677 334.106C543.926 334.661 543.55 335.478 543.55 336.556C543.55 337.438 543.795 338.173 544.285 338.761C544.775 339.316 545.428 339.774 546.245 340.133C547.062 340.492 547.927 340.835 548.842 341.162C550.051 341.619 551.161 342.126 552.174 342.681C553.219 343.236 554.052 343.922 554.673 344.739C555.326 345.556 555.653 346.601 555.653 347.875C555.653 349.835 554.967 351.436 553.595 352.677C552.256 353.886 550.508 354.49 548.352 354.49C546.784 354.49 545.412 354.212 544.236 353.657C543.093 353.102 542.162 352.383 541.443 351.501C540.757 350.619 540.251 349.704 539.924 348.757L541.982 347.581ZM558.364 331.46H568.262V333.861H558.364V331.46ZM562.039 323.62H564.587V354H562.039V323.62ZM575.108 331.46V354H572.56V331.46H575.108ZM582.605 334.449C582.115 334.09 581.642 333.828 581.184 333.665C580.76 333.469 580.253 333.371 579.665 333.371C578.555 333.371 577.656 333.681 576.97 334.302C576.317 334.923 575.843 335.756 575.549 336.801C575.255 337.846 575.108 339.006 575.108 340.28H573.932C573.932 338.483 574.21 336.899 574.765 335.527C575.321 334.122 576.072 333.012 577.019 332.195C577.999 331.378 579.077 330.97 580.253 330.97C580.972 330.97 581.642 331.084 582.262 331.313C582.916 331.509 583.504 331.852 584.026 332.342L582.605 334.449ZM588.351 321.268C588.351 320.745 588.531 320.321 588.89 319.994C589.25 319.635 589.674 319.455 590.164 319.455C590.687 319.455 591.112 319.635 591.438 319.994C591.798 320.321 591.977 320.745 591.977 321.268C591.977 321.758 591.798 322.183 591.438 322.542C591.112 322.901 590.687 323.081 590.164 323.081C589.674 323.081 589.25 322.901 588.89 322.542C588.531 322.183 588.351 321.758 588.351 321.268ZM588.89 331.46H591.438V354H588.89V331.46ZM600.132 342.73C600.132 344.559 600.524 346.176 601.308 347.581C602.092 348.986 603.154 350.096 604.493 350.913C605.865 351.697 607.4 352.089 609.099 352.089C610.308 352.089 611.435 351.909 612.48 351.55C613.525 351.191 614.424 350.733 615.175 350.178C615.959 349.59 616.514 349.002 616.841 348.414V351.599C616.155 352.416 615.093 353.102 613.656 353.657C612.251 354.212 610.732 354.49 609.099 354.49C606.91 354.49 604.95 353.984 603.219 352.971C601.488 351.958 600.099 350.57 599.054 348.806C598.041 347.009 597.535 344.984 597.535 342.73C597.535 340.443 598.041 338.418 599.054 336.654C600.099 334.89 601.488 333.502 603.219 332.489C604.95 331.476 606.91 330.97 609.099 330.97C610.732 330.97 612.251 331.264 613.656 331.852C615.093 332.407 616.155 333.077 616.841 333.861V337.046C616.514 336.425 615.959 335.837 615.175 335.282C614.424 334.727 613.525 334.269 612.48 333.91C611.435 333.551 610.308 333.371 609.099 333.371C607.4 333.371 605.865 333.779 604.493 334.596C603.154 335.38 602.092 336.474 601.308 337.879C600.524 339.284 600.132 340.901 600.132 342.73ZM619.949 331.46H629.847V333.861H619.949V331.46ZM623.624 323.62H626.172V354H623.624V323.62ZM669.955 342.73C669.955 344.69 669.645 346.405 669.024 347.875C668.436 349.345 667.603 350.57 666.525 351.55C665.48 352.53 664.255 353.265 662.85 353.755C661.445 354.245 659.943 354.49 658.342 354.49C656.382 354.49 654.667 354.18 653.197 353.559C651.76 352.938 650.518 352.089 649.473 351.011C648.46 349.9 647.611 348.659 646.925 347.287L649.228 345.768C649.783 346.911 650.486 347.957 651.335 348.904C652.217 349.851 653.246 350.603 654.422 351.158C655.598 351.681 656.905 351.942 658.342 351.942C660.106 351.942 661.641 351.583 662.948 350.864C664.287 350.113 665.316 349.051 666.035 347.679C666.786 346.307 667.162 344.657 667.162 342.73C667.162 340.999 666.786 339.48 666.035 338.173C665.316 336.866 664.336 335.854 663.095 335.135C661.854 334.384 660.433 334.008 658.832 334.008C657.623 334.008 656.513 334.139 655.5 334.4C654.487 334.661 653.507 335.086 652.56 335.674C651.613 336.262 650.616 337.03 649.571 337.977L654.079 319.7H670.249V322.101H656.137L653.197 334.008C653.981 333.322 654.945 332.75 656.088 332.293C657.264 331.803 658.538 331.558 659.91 331.558C661.805 331.558 663.503 332.032 665.006 332.979C666.541 333.926 667.75 335.233 668.632 336.899C669.514 338.565 669.955 340.509 669.955 342.73ZM694.825 330.774C694.825 329.01 694.449 327.442 693.698 326.07C692.979 324.698 691.966 323.62 690.66 322.836C689.353 322.052 687.85 321.66 686.152 321.66C684.453 321.66 682.95 322.052 681.644 322.836C680.337 323.62 679.308 324.698 678.557 326.07C677.838 327.442 677.479 329.01 677.479 330.774C677.479 332.473 677.854 333.992 678.606 335.331C679.357 336.67 680.37 337.732 681.644 338.516C682.95 339.3 684.388 339.692 685.956 339.692C687.752 339.692 689.304 339.284 690.611 338.467C691.95 337.65 692.979 336.572 693.698 335.233C694.449 333.894 694.825 332.407 694.825 330.774ZM683.702 354H680.321L691.493 338.761L691.689 338.908C690.872 339.888 689.908 340.607 688.798 341.064C687.687 341.489 686.429 341.701 685.025 341.701C683.62 341.701 682.297 341.423 681.056 340.868C679.847 340.313 678.769 339.545 677.822 338.565C676.907 337.552 676.188 336.393 675.666 335.086C675.143 333.747 674.882 332.309 674.882 330.774C674.882 328.487 675.355 326.478 676.303 324.747C677.283 323.016 678.622 321.66 680.321 320.68C682.019 319.7 683.963 319.21 686.152 319.21C688.373 319.21 690.317 319.7 691.983 320.68C693.681 321.66 695.004 323.016 695.952 324.747C696.932 326.478 697.422 328.487 697.422 330.774C697.422 332.179 697.177 333.534 696.687 334.841C696.229 336.148 695.674 337.258 695.021 338.173L683.702 354Z" fill="white"/>
<path d="M135.667 138.25H200.743V368.307H0V80H135.667V138.25Z" fill="white"/>
<path d="M26.3048 259.349L100.371 338.299L174.439 259.349C183.159 250.053 188.059 237.445 188.059 224.299V222.075C188.059 195.927 168.172 174.729 143.642 174.729C130.148 174.729 117.386 181.267 108.957 192.498L100.371 203.938L91.7857 192.498C83.3565 181.267 70.5949 174.729 57.1016 174.729C32.5707 174.729 12.6843 195.927 12.6843 222.075V224.299C12.6843 237.445 17.5837 250.053 26.3048 259.349Z" fill="#D5445F"/>
</svg>
